<svg xmlns="http://www.w3.org/2000/svg" viewBox="0 0 400 50"><style>.cls-1{fill:#fed136;}</style><path class="cls-1" d="M40.51-1.73L40.51-1.73L40.51-1.73Q40.51 2.56 44.80 2.56L44.80 2.56L44.80 2.56Q50.56 2.56 58.69-5.76L58.69-5.76L58.69-5.76Q66.05-13.18 69.92-20.90L69.92-20.90L69.92-20.90Q73.79-28.61 73.79-32.64L73.79-32.64L73.79-32.64Q73.79-33.28 73.66-33.92L73.66-33.92L73.66-33.92Q72.26-33.92 70.78-35.39L70.78-35.39L70.78-35.33L70.78-35.33Q69.82-36.10 69.82-36.90L69.82-36.90L69.82-36.90Q69.82-37.70 70.46-38.21L70.46-38.21L70.46-38.21Q71.10-38.72 72.13-38.72L72.13-38.72L72.13-38.72Q73.15-38.72 73.57-37.92L73.57-37.92L73.57-37.92Q73.98-37.12 74.62-36.48L74.62-36.48L74.62-36.48Q75.26-35.84 75.20-35.58L75.20-35.58L75.20-35.58Q75.58-35.01 76.38-35.01L76.38-35.01L76.38-35.01Q77.18-35.01 78.21-35.78L78.21-35.78L78.21-35.78Q79.23-36.54 79.84-36.54L79.84-36.54L79.84-36.54Q80.45-36.54 80.45-36.16L80.45-36.16L80.45-36.16Q80.45-35.46 79.23-34.82L79.23-34.82L79.23-34.82Q78.59-34.30 77.70-34.24L77.70-34.24L75.65-34.24L75.65-34.24Q76.42-31.62 76.42-30.46L76.42-30.46L76.42-30.46Q76.42-25.34 71.52-17.15L71.52-17.15L71.52-17.15Q66.62-8.96 58.94-2.62L58.94-2.62L58.94-2.62Q51.20 3.90 44.90 3.90L44.90 3.90L44.90 3.90Q38.59 3.90 38.59-2.24L38.59-2.24L38.59-2.24Q38.59-7.10 42.69-16.13L42.69-16.13L47.30-26.18L41.02-21.31L41.02-21.31Q38.08-18.88 35.04-15.97L35.04-15.97L35.04-15.97Q32-13.06 24.45-3.97L24.45-3.97L17.02 5.12L17.02 5.12Q15.23 7.17 13.82 7.17L13.82 7.17L13.82 7.17Q12.74 7.17 12.74 5.76L12.74 5.76L12.74 5.76Q12.74 4.35 13.89 2.11L13.89 2.11L26.24-15.68L26.24-15.68Q37.44-32.13 37.44-36.54L37.44-36.54L37.44-36.54Q37.44-38.98 32.96-38.98L32.96-38.98L32.96-38.98Q27.52-38.98 17.79-32.32L17.79-32.32L17.79-32.32Q12.54-28.74 8.58-23.33L8.58-23.33L8.58-23.33Q4.61-17.92 4.61-14.37L4.61-14.37L4.61-14.37Q4.61-10.82 9.34-10.82L9.34-10.82L9.34-10.82Q13.76-10.82 18.43-14.91L18.43-14.91L18.43-14.91Q20.10-16.32 20.35-16.32L20.35-16.32L20.35-16.32Q20.61-16.32 20.54-15.87L20.54-15.87L20.54-15.87Q19.84-13.44 15.33-11.23L15.33-11.23L15.33-11.23Q10.82-9.02 7.36-9.02L7.36-9.02L7.36-9.02Q6.46-9.02 6.14-9.09L6.14-9.09L6.08-9.09L6.08-9.09Q0.96-10.18 0.96-14.14L0.96-14.14L0.96-14.14Q0.96-18.11 5.38-23.68L5.38-23.68L5.38-23.68Q13.18-33.54 25.47-38.34L25.47-38.34L25.47-38.34Q31.81-40.77 35.90-40.77L35.90-40.77L35.90-40.77Q40.96-40.77 40.96-37.44L40.96-37.44L40.96-37.44Q40.96-30.53 23.55-7.42L23.55-7.42L23.55-7.42Q17.73 0.32 17.66 0.32L17.66 0.32L17.66 0.32Q17.86 0.32 24.35-6.91L24.35-6.91L24.35-6.91Q30.85-14.14 36.67-19.26L36.67-19.26L36.67-19.26Q38.91-21.25 44.42-26.56L44.42-26.56L44.42-26.56Q47.30-29.25 50.62-31.42L50.62-31.42L50.62-31.42Q51.46-31.94 53.02-31.94L53.02-31.94L53.02-31.94Q54.59-31.94 55.17-31.04L55.17-31.04L55.17-31.04Q49.28-23.74 44.90-14.69L44.90-14.69L44.90-14.69Q40.51-5.63 40.51-1.73ZM77.76-34.24L77.70-34.24L77.76-34.24ZM86.53-26.11L86.53-26.11Q87.49-26.11 88.35-25.50L88.35-25.50L88.35-25.50Q89.22-24.90 89.22-24.06L89.22-24.06L89.22-24.06Q89.22-23.23 88.42-22.62L88.42-22.62L88.42-22.62Q87.62-22.02 86.66-22.02L86.66-22.02L86.66-22.02Q85.70-22.02 84.90-22.72L84.90-22.72L84.90-22.72Q84.10-23.42 84.10-24.32L84.10-24.32L84.10-24.32Q84.10-26.11 86.53-26.11L86.53-26.11ZM74.94 0.70L74.94 0.70L74.94 0.70Q71.68 0.70 71.68-3.52L71.68-3.52L71.68-3.52Q71.68-6.98 75.46-13.09L75.46-13.09L75.46-13.09Q79.23-19.20 81.54-19.26L81.54-19.26L81.54-19.26Q82.18-19.26 82.98-18.75L82.98-18.75L82.98-18.75Q83.78-18.24 83.78-17.73L83.78-17.73L83.78-17.73Q83.46-17.28 83.01-16.74L83.01-16.74L83.01-16.74Q82.56-16.19 82.05-15.55L82.05-15.55L82.05-15.55Q81.54-14.91 80.64-13.73L80.64-13.73L80.64-13.73Q79.74-12.54 78.91-11.46L78.91-11.46L78.91-11.46Q74.11-5.25 74.11-2.91L74.11-2.91L74.11-2.91Q74.11-0.58 75.71-0.58L75.71-0.58L75.71-0.58Q77.06-0.58 79.36-2.05L79.36-2.05L79.36-2.05Q84.74-5.38 87.87-9.34L87.87-9.34L87.87-9.34Q89.02-10.82 89.44-10.82L89.44-10.82L89.44-10.82Q89.86-10.82 89.86-10.30L89.86-10.30L89.86-10.30Q89.86-9.79 88.38-8.26L88.38-8.26L88.38-8.26Q86.91-6.72 86.05-5.82L86.05-5.82L86.05-5.82Q85.18-4.93 84.86-4.64L84.86-4.64L84.86-4.64Q84.54-4.35 83.68-3.55L83.68-3.55L83.68-3.55Q82.82-2.75 82.37-2.43L82.37-2.43L82.37-2.43Q81.92-2.11 81.09-1.47L81.09-1.47L81.09-1.47Q80.26-0.83 79.62-0.54L79.62-0.54L79.62-0.54Q78.98-0.26 78.14 0.13L78.14 0.13L78.14 0.13Q76.80 0.70 74.94 0.70ZM91.97 0.83L91.97 0.83L91.97 0.83Q91.26 0.83 90.69 0.64L90.69 0.64L90.69 0.64Q86.59-0.51 86.59-3.97L86.59-3.97L86.59-3.97Q86.59-8.45 92.22-14.34L92.22-14.34L92.22-14.34Q97.86-20.22 102.34-20.22L102.34-20.22L102.34-20.22Q103.81-20.22 104.74-19.42L104.74-19.42L104.74-19.42Q105.66-18.62 105.66-17.25L105.66-17.25L105.66-17.25Q105.66-15.87 104.83-14.37L104.83-14.37L104.83-14.37Q104-12.86 102.34-12.86L102.34-12.86L102.34-12.86Q100.67-12.86 100.67-13.89L100.67-13.89L100.67-13.89Q100.67-14.59 101.54-16.03L101.54-16.03L101.54-16.03Q102.40-17.47 102.40-17.57L102.40-17.57L102.40-17.57Q102.40-17.66 102.21-17.66L102.21-17.66L102.21-17.66Q100.42-17.47 97.31-15.10L97.31-15.10L97.31-15.10Q94.21-12.74 93.06-11.14L93.06-11.14L90.56-7.49L90.56-7.49Q89.92-6.46 89.63-5.06L89.63-5.06L89.63-5.06Q89.34-3.65 89.34-2.94L89.34-2.94L89.34-2.94Q89.34-2.24 90.14-1.34L90.14-1.34L90.14-1.34Q90.94-0.45 92.42-0.45L92.42-0.45L92.42-0.45Q95.62-0.45 100.35-4.19L100.35-4.19L100.35-4.19Q105.09-7.94 107.65-11.33L107.65-11.33L107.65-11.33Q107.97-11.71 108.42-11.71L108.42-11.71L108.42-11.71Q108.86-11.71 108.86-11.46L108.86-11.46L108.86-11.46Q108.86-11.20 108.54-10.82L108.54-10.82L108.54-10.82Q105.02-6.14 100.13-2.66L100.13-2.66L100.13-2.66Q95.23 0.83 91.97 0.83ZM118.34 0.77L118.34 0.77L118.34 0.77Q113.28 0.77 109.76-7.23L109.76-7.23L109.76-7.23Q108.86-5.89 105.73 0.32L105.73 0.32L105.73 0.32Q103.42-0.58 103.42-2.11L103.42-2.11L103.42-2.11Q103.42-4.86 111.68-17.22L111.68-17.22L111.68-17.22Q119.94-29.57 123.01-31.74L123.01-31.74L123.01-31.74Q123.26-31.94 124.03-31.94L124.03-31.94L124.03-31.94Q126.02-31.94 126.02-30.91L126.02-30.91L126.02-30.91Q126.02-30.40 121.57-25.15L121.57-25.15L121.57-25.15Q117.12-19.90 116.61-18.82L116.61-18.82L116.61-18.82Q122.43-21.82 125.89-21.82L125.89-21.82L125.89-21.82Q127.87-21.82 129.28-20.22L129.28-20.22L129.28-20.22Q130.62-18.88 130.62-17.47L130.62-17.47L130.62-17.47Q130.62-17.28 130.62-17.09L130.62-17.09L130.62-17.09Q130.11-13.44 125.50-11.07L125.50-11.07L125.50-11.07Q121.79-9.09 118.59-9.09L118.59-9.09L118.59-9.09Q115.39-9.09 114.11-9.92L114.11-9.92L114.11-9.92Q113.73-9.98 113.50-9.73L113.50-9.73L113.50-9.73Q113.28-9.47 113.41-9.09L113.41-9.09L113.41-9.09Q115.20-1.15 119.36-1.15L119.36-1.15L119.36-1.15Q121.54-1.15 124.96-3.58L124.96-3.58L124.96-3.58Q128.38-6.02 132.10-10.43L132.10-10.43L132.10-10.43Q132.54-10.88 132.90-10.88L132.90-10.88L132.90-10.88Q133.25-10.88 133.25-10.53L133.25-10.53L133.25-10.53Q133.25-10.18 132.80-9.54L132.80-9.54L132.80-9.54Q129.34-5.31 126.27-2.88L126.27-2.88L126.27-2.88Q121.60 0.77 118.34 0.77ZM127.55-18.82L127.55-18.82L127.55-18.82Q127.55-19.33 126.98-19.84L126.98-19.84L126.98-19.84Q126.40-20.35 125.76-20.35L125.76-20.35L125.76-20.35Q122.30-20.35 117.47-17.47L117.47-17.47L117.47-17.47Q112.64-14.59 111.55-10.94L111.55-10.94L111.55-10.94Q112.13-10.94 114.62-10.75L114.62-10.75L114.62-10.75Q117.50-10.75 122.18-13.12L122.18-13.12L122.18-13.12Q127.55-15.81 127.55-18.82ZM148.35 0.38L148.35 0.38L148.35 0.38Q148.03 0.45 146.98 0.45L146.98 0.45L146.98 0.45Q145.92 0.45 144.86-0.38L144.86-0.38L144.86-0.38Q143.81-1.22 143.81-2.53L143.81-2.53L143.81-2.53Q143.81-3.84 144.29-5.44L144.29-5.44L144.29-5.44Q144.77-7.04 144.96-7.87L144.96-7.87L144.96-7.87Q137.60 0.70 133.44 0.70L133.44 0.70L133.44 0.70Q130.82 0.70 130.56-2.56L130.56-2.56L130.56-2.56Q130.56-2.82 130.56-3.01L130.56-3.01L130.56-3.01Q130.56-5.76 133.89-10.43L133.89-10.43L133.89-10.43Q132.03-8.77 130.11-6.59L130.11-6.59L130.11-6.59Q129.86-6.34 129.47-6.34L129.47-6.34L129.47-6.34Q129.22-6.34 129.22-6.66L129.22-6.66L129.22-6.66Q129.22-6.98 129.79-7.74L129.79-7.74L138.62-18.11L138.62-18.11Q140.29-20.03 142.02-20.03L142.02-20.03L142.02-20.03Q143.74-20.03 143.74-18.88L143.74-18.88L143.74-18.88Q143.74-18.43 143.36-18.05L143.36-18.05L143.36-18.05Q140.80-15.68 136.93-10.18L136.93-10.18L136.93-10.18Q133.06-4.67 133.06-2.05L133.06-2.05L133.06-2.05Q133.06-0.90 133.82-0.90L133.82-0.90L133.82-0.90Q136.51-0.90 141.63-6.21L141.63-6.21L141.63-6.21Q143.42-8 148.29-14.11L148.29-14.11L148.29-14.11Q153.15-20.22 154.69-20.22L154.69-20.22L154.69-20.22Q156.99-20.22 156.99-18.43L156.99-18.43L156.99-18.43Q156.99-17.79 154.30-14.72L154.30-14.72L154.30-14.72Q150.66-10.30 148.74-7.52L148.74-7.52L148.74-7.52Q146.82-4.74 146.82-3.01L146.82-3.01L146.82-3.01Q146.82-1.28 147.78-1.28L147.78-1.28L147.78-1.28Q148.22-1.28 148.80-1.54L148.80-1.54L148.80-1.54Q153.22-3.46 159.36-10.50L159.36-10.50L159.36-10.50Q159.74-10.94 160.13-10.94L160.13-10.94L160.13-10.94Q160.51-10.94 160.51-10.53L160.51-10.53L160.51-10.53Q160.51-10.11 160.06-9.60L160.06-9.60L160.06-9.60Q157.31-6.40 153.60-3.17L153.60-3.17L153.60-3.17Q149.89 0.06 148.35 0.38ZM171.46-2.30L169.41-0.96L169.41-0.96Q167.55 0.13 164.83 0.13L164.83 0.13L164.83 0.13Q162.11 0.13 160.67-1.66L160.67-1.66L160.67-1.66Q159.23-3.46 158.21-7.36L158.21-7.36L158.21-7.36Q157.06-6.21 156.61-6.21L156.61-6.21L156.61-6.21Q156.29-6.21 156.29-6.66L156.29-6.66L156.29-6.66Q156.29-7.10 156.61-7.42L156.61-7.42L156.61-7.42Q158.72-10.05 163.78-14.98L163.78-14.98L171.84-22.53L171.84-22.53Q175.30-25.79 175.94-25.79L175.94-25.79L175.94-25.79Q177.98-25.79 177.98-24.26L177.98-24.26L177.98-24.26Q177.98-23.49 177.38-22.75L177.38-22.75L177.38-22.75Q176.77-22.02 176.48-21.60L176.48-21.60L176.48-21.60Q176.19-21.18 175.87-20.80L175.87-20.80L175.87-20.80Q174.72-18.82 173.54-12.61L173.54-12.61L173.54-12.61Q172.35-6.40 171.71-3.97L171.71-3.97L171.71-3.97Q177.02-4.03 182.66-10.88L182.66-10.88L182.66-10.88Q183.30-11.52 183.62-11.52L183.62-11.52L183.62-11.52Q183.94-11.52 183.94-11.10L183.94-11.10L183.94-11.10Q183.94-10.69 183.36-9.98L183.36-9.98L183.36-9.98Q179.65-5.63 176.45-3.90L176.45-3.90L176.45-3.90Q174.53-2.94 171.46-2.30L171.46-2.30ZM160.77-8.06L160.77-8.06L160.77-8.06Q160.77-5.89 162.21-4.51L162.21-4.51L162.21-4.51Q163.65-3.14 165.44-3.14L165.44-3.14L165.44-3.14Q167.23-3.14 168.19-3.84L168.19-3.84L168.19-3.84Q169.47-4.54 170.72-9.73L170.72-9.73L170.72-9.73Q171.97-14.91 172.22-18.88L172.22-18.88L172.48-21.06L172.48-21.06Q168.96-18.43 164.96-14.27L164.96-14.27L164.96-14.27Q160.96-10.11 160.83-8.77L160.83-8.77L160.83-8.77Q160.77-8.38 160.77-8.06ZM242.56-12.10L242.56-12.10L242.56-12.10Q242.56-9.79 241.54-7.74L241.54-7.74L241.54-7.74Q239.36-3.14 233.22-0.06L233.22-0.06L233.22-0.06Q227.07 3.01 220.42 3.01L220.42 3.01L220.42 3.01Q210.30 3.01 206.66-3.90L206.66-3.90L206.66-3.90Q200.06 1.60 197.25 1.60L197.25 1.60L197.25 1.60Q196.74 1.60 196.35 1.41L196.35 1.41L196.35 1.41Q194.43 0.38 194.43-3.01L194.43-3.01L194.43-3.01Q194.43-6.40 197.25-11.33L197.25-11.33L197.25-11.33Q200.06-16.26 202.18-17.15L202.18-17.15L202.18-17.15Q203.14-17.47 203.65-17.47L203.65-17.47L203.65-17.47Q205.50-17.47 206.46-14.40L206.46-14.40L208.38-8.26L208.38-8.26Q210.24-10.24 213.44-14.59L213.44-14.59L219.14-22.27L219.14-22.27Q229.63-35.90 232.90-37.18L232.90-37.18L232.90-37.18Q234.05-37.63 235.26-37.63L235.26-37.63L235.26-37.63Q236.48-37.63 237.28-37.12L237.28-37.12L237.28-37.12Q238.08-36.61 238.08-35.84L238.08-35.84L238.08-35.84Q238.08-34.69 236.22-34.50L236.22-34.50L236.22-34.50Q234.30-33.41 228.90-28.13L228.90-28.13L228.90-28.13Q223.49-22.85 222.46-21.44L222.46-21.44L222.46-21.44Q215.30-11.46 209.22-6.08L209.22-6.08L209.22-6.08Q213.12 1.66 220.93 1.66L220.93 1.66L220.93 1.66Q225.66 1.66 230.34-1.31L230.34-1.31L230.34-1.31Q235.01-4.29 237.31-8.64L237.31-8.64L237.31-8.64Q238.34-10.50 238.34-12.80L238.34-12.80L238.34-12.80Q238.34-15.10 236.51-17.18L236.51-17.18L236.51-17.18Q234.69-19.26 231.94-20.22L231.94-20.22L231.94-20.22Q230.66-20.42 227.84-20.77L227.84-20.77L227.84-20.77Q225.02-21.12 225.02-21.95L225.02-21.95L225.02-21.95Q225.02-22.27 225.28-22.53L225.28-22.53L225.28-22.53Q226.05-23.42 227.26-23.42L227.26-23.42L227.26-23.42Q227.97-23.42 228.64-23.17L228.64-23.17L228.64-23.17Q229.31-22.91 229.70-22.78L229.70-22.78L229.70-22.78Q230.08-22.66 230.59-22.46L230.59-22.46L230.59-22.46Q232-22.34 233.02-22.34L233.02-22.34L233.02-22.34Q237.25-22.34 240.70-23.68L240.70-23.68L240.70-23.68Q245.12-25.41 246.34-28.86L246.34-28.86L246.34-28.86Q247.10-31.10 247.10-32.90L247.10-32.90L247.10-32.90Q247.10-37.31 242.82-39.49L242.82-39.49L242.82-39.49Q239.10-41.41 232.64-41.41L232.64-41.41L232.64-41.41Q222.46-41.41 214.40-37.57L214.40-37.57L214.40-37.57Q210.30-35.65 206.62-31.87L206.62-31.87L206.62-31.87Q202.94-28.10 202.94-25.41L202.94-25.41L202.94-25.41Q202.94-23.55 203.90-22.34L203.90-22.34L203.90-22.34Q204.29-21.82 205.25-21.06L205.25-21.06L205.25-21.06Q205.57-20.86 204.86-20.86L204.86-20.86L204.86-20.86Q200.90-21.76 200.90-26.18L200.90-26.18L200.90-26.18Q200.90-30.59 205.38-34.50L205.38-34.50L205.38-34.50Q208.70-37.38 212.86-39.17L212.86-39.17L212.86-39.17Q221.50-42.88 232.51-42.88L232.51-42.88L232.51-42.88Q240.38-42.88 245.06-40.58L245.06-40.58L245.06-40.58Q250.50-38.02 250.50-32.83L250.50-32.83L250.50-32.83Q250.50-30.78 249.66-28.67L249.66-28.67L249.66-28.67Q248.32-24.83 242.69-22.85L242.69-22.85L242.69-22.85Q238.46-21.38 233.60-21.31L233.60-21.31L233.60-21.31Q237.38-21.12 239.97-18.53L239.97-18.53L239.97-18.53Q242.56-15.94 242.56-12.10ZM201.66-14.46L201.66-14.46L201.66-14.46Q201.60-14.46 201.34-14.34L201.34-14.34L201.34-14.34Q196.61-7.49 196.61-3.33L196.61-3.33L196.61-3.33Q196.61-1.60 197.44-0.19L197.44-0.19L197.44-0.19Q197.63 0.13 198.08 0.13L198.08 0.13L198.08 0.13Q200.13 0.13 205.95-5.70L205.95-5.70L205.76-5.95L205.76-5.95Q203.20-14.46 201.66-14.46ZM248.96 0.83L248.96 0.83L248.96 0.83Q248.26 0.83 247.68 0.64L247.68 0.64L247.68 0.64Q243.58-0.51 243.58-3.97L243.58-3.97L243.58-3.97Q243.58-8.45 249.22-14.34L249.22-14.34L249.22-14.34Q254.85-20.22 259.33-20.22L259.33-20.22L259.33-20.22Q260.80-20.22 261.73-19.42L261.73-19.42L261.73-19.42Q262.66-18.62 262.66-17.47L262.66-17.47L262.66-17.47Q262.66-13.89 257.25-10.62L257.25-10.62L257.25-10.62Q251.84-7.36 248.45-7.36L248.45-7.36L248.45-7.36Q247.94-7.36 247.55-7.49L247.55-7.49L247.55-7.49Q246.59-5.76 246.59-3.84L246.59-3.84L246.59-3.84Q246.59-0.51 249.76-0.51L249.76-0.51L249.76-0.51Q252.93-0.51 257.98-4.80L257.98-4.80L257.98-4.80Q261.89-7.94 264.64-11.46L264.64-11.46L264.64-11.46Q265.22-12.22 265.63-12.22L265.63-12.22L265.63-12.22Q266.05-12.22 266.05-11.84L266.05-11.84L266.05-11.84Q266.05-11.46 265.54-10.75L265.54-10.75L265.54-10.75Q262.08-6.21 257.22-2.69L257.22-2.69L257.22-2.69Q252.35 0.83 248.96 0.83ZM261.06-17.60L261.06-17.60L261.06-17.60Q261.06-18.37 259.42-18.37L259.42-18.37L259.42-18.37Q257.79-18.37 254.78-15.87L254.78-15.87L254.78-15.87Q250.75-12.54 248.51-8.90L248.51-8.90L248.51-8.90Q248.90-8.77 249.34-8.77L249.34-8.77L249.34-8.77Q251.78-8.77 255.84-11.36L255.84-11.36L255.84-11.36Q259.90-13.95 260.93-17.02L260.93-17.02L260.93-17.02Q261.06-17.34 261.06-17.60ZM275.97-2.30L273.92-0.96L273.92-0.96Q272.06 0.13 269.34 0.13L269.34 0.13L269.34 0.13Q266.62 0.13 265.18-1.66L265.18-1.66L265.18-1.66Q263.74-3.46 262.72-7.36L262.72-7.36L262.72-7.36Q261.57-6.21 261.12-6.21L261.12-6.21L261.12-6.21Q260.80-6.21 260.80-6.66L260.80-6.66L260.80-6.66Q260.80-7.10 261.12-7.42L261.12-7.42L261.12-7.42Q263.23-10.05 268.29-14.98L268.29-14.98L276.35-22.53L276.35-22.53Q279.81-25.79 280.45-25.79L280.45-25.79L280.45-25.79Q282.50-25.79 282.50-24.26L282.50-24.26L282.50-24.26Q282.50-23.49 281.89-22.75L281.89-22.75L281.89-22.75Q281.28-22.02 280.99-21.60L280.99-21.60L280.99-21.60Q280.70-21.18 280.38-20.80L280.38-20.80L280.38-20.80Q279.23-18.82 278.05-12.61L278.05-12.61L278.05-12.61Q276.86-6.40 276.22-3.97L276.22-3.97L276.22-3.97Q281.54-4.03 287.17-10.88L287.17-10.88L287.17-10.88Q287.81-11.52 288.13-11.52L288.13-11.52L288.13-11.52Q288.45-11.52 288.45-11.10L288.45-11.10L288.45-11.10Q288.45-10.69 287.87-9.98L287.87-9.98L287.87-9.98Q284.16-5.63 280.96-3.90L280.96-3.90L280.96-3.90Q279.04-2.94 275.97-2.30L275.97-2.30ZM265.28-8.06L265.28-8.06L265.28-8.06Q265.28-5.89 266.72-4.51L266.72-4.51L266.72-4.51Q268.16-3.14 269.95-3.14L269.95-3.14L269.95-3.14Q271.74-3.14 272.70-3.84L272.70-3.84L272.70-3.84Q273.98-4.54 275.23-9.73L275.23-9.73L275.23-9.73Q276.48-14.91 276.74-18.88L276.74-18.88L276.99-21.06L276.99-21.06Q273.47-18.43 269.47-14.27L269.47-14.27L269.47-14.27Q265.47-10.11 265.34-8.77L265.34-8.77L265.34-8.77Q265.28-8.38 265.28-8.06ZM301.82-20.61L301.82-20.61L311.04-20.74L311.04-20.74Q311.23-20.61 311.23-20.54L311.23-20.54L311.23-20.54Q311.23-19.97 303.26-18.94L303.26-18.94L303.26-18.94Q295.30-17.92 294.66-17.73L294.66-17.73L294.66-17.73Q293.44-16.64 290.18-11.23L290.18-11.23L290.18-11.23Q286.91-5.82 286.91-3.33L286.91-3.33L286.91-3.33Q286.91-0.96 290.18-0.96L290.18-0.96L290.18-0.96Q291.71-0.96 294.21-1.92L294.21-1.92L294.21-1.92Q296.70-2.88 298.05-3.71L298.05-3.71L298.05-3.71Q301.63-5.95 305.73-10.30L305.73-10.30L305.73-10.30Q306.62-11.20 306.94-11.20L306.94-11.20L306.94-11.20Q307.14-11.20 307.14-10.82L307.14-10.82L307.14-10.82Q307.14-10.43 306.18-9.28L306.18-9.28L306.18-9.28Q302.85-5.18 298.69-2.69L298.69-2.69L298.69-2.69Q293.70 0.38 289.15 0.38L289.15 0.38L289.15 0.38Q287.17 0.38 285.92-0.48L285.92-0.48L285.92-0.48Q284.67-1.34 284.67-3.97L284.67-3.97L284.67-3.97Q284.67-6.59 286.98-11.17L286.98-11.17L286.98-11.17Q289.28-15.74 290.50-17.98L290.50-17.98L290.50-17.98Q289.60-17.79 288.96-17.79L288.96-17.79L288.96-17.79Q287.10-17.79 287.10-19.26L287.10-19.26L287.10-19.26Q287.10-20.35 288.64-20.80L288.64-20.80L288.64-20.80Q288.83-20.80 289.22-20.86L289.22-20.86L292.93-20.86L292.93-20.86Q294.08-22.34 295.55-24.26L295.55-24.26L295.55-24.26Q297.34-26.56 297.98-26.56L297.98-26.56L297.98-26.56Q298.62-26.56 299.58-26.05L299.58-26.05L299.58-26.05Q300.54-25.54 300.54-24.83L300.54-24.83L300.54-24.83Q300.54-24.13 297.47-20.67L297.47-20.67L297.47-20.67Q299.14-20.61 301.82-20.61ZM307.39 0.83L307.39 0.83L307.39 0.83Q306.69 0.83 306.11 0.64L306.11 0.64L306.11 0.64Q302.02-0.51 302.02-3.97L302.02-3.97L302.02-3.97Q302.02-8.45 307.65-14.34L307.65-14.34L307.65-14.34Q313.28-20.22 317.76-20.22L317.76-20.22L317.76-20.22Q319.23-20.22 320.16-19.42L320.16-19.42L320.16-19.42Q321.09-18.62 321.09-17.47L321.09-17.47L321.09-17.47Q321.09-13.89 315.68-10.62L315.68-10.62L315.68-10.62Q310.27-7.36 306.88-7.36L306.88-7.36L306.88-7.36Q306.37-7.36 305.98-7.49L305.98-7.49L305.98-7.49Q305.02-5.76 305.02-3.84L305.02-3.84L305.02-3.84Q305.02-0.51 308.19-0.51L308.19-0.51L308.19-0.51Q311.36-0.51 316.42-4.80L316.42-4.80L316.42-4.80Q320.32-7.94 323.07-11.46L323.07-11.46L323.07-11.46Q323.65-12.22 324.06-12.22L324.06-12.22L324.06-12.22Q324.48-12.22 324.48-11.84L324.48-11.84L324.48-11.84Q324.48-11.46 323.97-10.75L323.97-10.75L323.97-10.75Q320.51-6.21 315.65-2.69L315.65-2.69L315.65-2.69Q310.78 0.83 307.39 0.83ZM319.49-17.60L319.49-17.60L319.49-17.60Q319.49-18.37 317.86-18.37L317.86-18.37L317.86-18.37Q316.22-18.37 313.22-15.87L313.22-15.87L313.22-15.87Q309.18-12.54 306.94-8.90L306.94-8.90L306.94-8.90Q307.33-8.77 307.78-8.77L307.78-8.77L307.78-8.77Q310.21-8.77 314.27-11.36L314.27-11.36L314.27-11.36Q318.34-13.95 319.36-17.02L319.36-17.02L319.36-17.02Q319.49-17.34 319.49-17.60ZM333.63 0.32L333.63 0.32L333.63 0.32Q328.83 0.32 328.83-4.99L328.83-4.99L328.83-4.99Q328.83-7.68 330.24-10.88L330.24-10.88L330.24-10.88Q331.65-14.08 333.31-16.26L333.31-16.26L333.31-16.26Q332.99-16.19 332.48-16.19L332.48-16.19L332.48-16.19Q330.94-16.19 329.92-18.37L329.92-18.37L325.18-12.22L325.18-12.22Q321.22-7.30 320.58-7.30L320.58-7.30L320.58-7.30Q320.26-7.30 320.26-7.55L320.26-7.55L320.26-7.55Q320.26-8.19 321.34-9.41L321.34-9.41L321.34-9.41Q326.91-15.87 329.22-20.35L329.22-20.35L329.22-20.35Q330.69-25.92 332.93-25.92L332.93-25.92L332.93-25.92Q334.40-25.92 334.40-24.64L334.40-24.64L334.40-24.64Q334.40-23.36 332.80-21.38L332.80-21.38L331.26-19.33L331.26-19.33Q331.26-17.98 333.25-17.98L333.25-17.98L333.25-17.98Q334.40-17.98 335.81-18.82L335.81-18.82L337.47-19.84L337.47-19.84Q337.60-19.90 338.11-19.90L338.11-19.90L338.11-19.90Q338.62-19.90 339.20-19.26L339.20-19.26L339.20-19.26Q339.78-18.62 339.58-18.11L339.58-18.11L335.17-12.54L335.17-12.54Q331.07-7.30 331.07-4.26L331.07-4.26L331.07-4.26Q331.07-1.22 333.89-1.22L333.89-1.22L333.89-1.22Q336.83-1.22 341.12-4.35L341.12-4.35L341.12-4.35Q343.68-6.21 345.79-8.51L345.79-8.51L345.79-8.51Q347.78-10.82 347.97-10.82L347.97-10.82L347.97-10.82Q348.42-10.82 348.42-10.34L348.42-10.34L348.42-10.34Q348.42-9.86 347.84-9.22L347.84-9.22L345.79-6.91L345.79-6.91Q344.06-5.12 341.95-3.46L341.95-3.46L341.95-3.46Q336.90 0.32 333.63 0.32Z" transform="translate(-3 42)"/></svg>
